# AST/ASF file generated using VICON BodyLanguage
# -----------------------------------------------
:version 1.10
:name VICON
:units
  mass 1.0
  length 0.45
  angle deg
:documentation
   .ast/.asf automatically generated from VICON data using
   VICON BodyBuilder and BodyLanguage model FoxedUp or BRILLIANT.MOD
:root
   order TX TY TZ RX RY RZ
   axis XYZ
   position 0 0 0  
   orientation 0 0 0 
:bonedata
  begin
     id 1 
     name lhipjoint
     direction 0.623529 -0.717805 0.309788 
     length 2.23224 
     axis 0 0 0  XYZ
  end
  begin
     id 2 
     name lfemur
     direction 0.34202 -0.939693 0  
     length 7.11402  
     axis 0 0 20  XYZ
    dof rx ry rz
    limits (-160.0 20.0)
           (-70.0 70.0)
           (-60.0 70.0)
  end
  begin
     id 3 
     name ltibia
     direction 0.34202 -0.939693 0   
     length 6.78496   
     axis 0 0 20   XYZ
    dof rx
    limits (-10.0 170.0)
  end
  begin
     id 4 
     name lfoot
     direction 0.125078 -0.343648 0.930732   
     length 1.84054   
     axis -90 7.62852e-016 20   XYZ
    dof rx rz
    limits (-45.0 90.0)
           (-70.0 20.0)
  end
  begin
     id 5 
     name ltoes
     direction 1.53565e-011 -4.21893e-011 1   
     length 0.916474   
     axis -90 7.62852e-016 20   XYZ
    dof rx
    limits (-90.0 20.0)
  end
  begin
     id 6 
     name rhipjoint
     direction -0.564688 -0.757748 0.327026   
     length 2.11457  
     axis 0 0 0  XYZ 
  end
  begin
     id 7 
     name rfemur
     direction -0.34202 -0.939693 0   
     length 7.14609   
     axis 0 0 -20   XYZ
    dof rx ry rz
    limits (-160.0 20.0)
           (-70.0 70.0)
           (-70.0 60.0)
  end
  begin
     id 8 
     name rtibia
     direction -0.34202 -0.939693 0   
     length 6.78101   
     axis 0 0 -20   XYZ
    dof rx
    limits (-10.0 170.0)
 end
 begin
     id 9 
     name rfoot
     direction -0.0992671 -0.272734 0.956955   
     length 1.96168  
     axis -90 -7.62852e-016 -20   XYZ
    dof rx rz
    limits (-45.0 90.0)
           (-20.0 70.0)
  end
  begin
     id 10 
     name rtoes
     direction -1.5356e-011 -4.21891e-011 1   
     length 0.982933   
     axis -90 -7.62852e-016 -20   XYZ
    dof rx
    limits (-90.0 20.0)
  end
  begin
     id 11 
     name lowerback
     direction -0.00596953 0.998668 0.0512524   
     length 1.87557   
     axis 0 0 0   XYZ
    dof rx ry rz
    limits (-20.0 45.0)
           (-30.0 30.0)
           (-30.0 30.0)
  end
  begin
     id 12 
     name upperback
     direction 0.00584879 0.999652 0.0257308   
     length 1.87883   
     axis 0 0 0   XYZ
    dof rx ry rz
    limits (-20.0 45.0)
           (-30.0 30.0)
           (-30.0 30.0)
  end
  begin
     id 13 
     name thorax
     direction 0.010104 0.999947 0.00178881   
     length 1.87779   
     axis 0 0 0   XYZ
    dof rx ry rz
    limits (-20.0 45.0)
           (-30.0 30.0)
           (-30.0 30.0)
  end
  begin
     id 14 
     name lowerneck
     direction 0.0120771 0.995934 -0.0892773   
     length 1.40897   
     axis 0 0 0   XYZ
    dof rx ry rz
    limits (-20.0 45.0)
           (-30.0 30.0)
           (-30.0 30.0)
  end
  begin
     id 15 
     name upperneck
     direction -0.030568 0.999465 -0.0116366   
     length 1.38661   
     axis 0 0 0   XYZ
    dof rx ry rz
    limits (-20.0 45.0)
           (-30.0 30.0)
           (-30.0 30.0)
  end
  begin
     id 16
     name head
     direction -0.0170715 0.999854 -0.00104426  
     length 1.47052  
     axis 0 0 0   XYZ
    dof rx ry rz
    limits (-20.0 45.0)
           (-30.0 30.0)
           (-30.0 30.0)
  end
  begin
     id 17 
     name lclavicle
     direction 0.977763 0.206143 0.038532  
     length 3.02424  
     axis 0 0 0   XYZ
    dof ry rz
    limits (-20.0 10.0)
           (0.0 20.0)
  end
  begin
     id 18 
     name lhumerus
     direction 1 -4.48965e-011 -2.62654e-027   
     length 4.68382   
     axis 180 -30 -90   XYZ
    dof rx ry rz
    limits (-60.0 90.0)
           (-90.0 90.0)
           (-90.0 90.0)
  end
  begin
     id 19
     name lradius
     direction 1 -4.48973e-011 -1.54954e-027   
     length 2.98124   
     axis 180 -30 -90   XYZ
    dof rx
    limits (-10.0 170.0)
  end
  begin
     id 20
     name lwrist
     direction 1 -4.48959e-011 7.20928e-028   
     length 1.49062   
     axis -5.52449e-016 90 90   XYZ
    dof ry
    limits (-180.0 0.0)
 end
  begin
     id 21 
     name lhand
     direction 1 -4.48971e-011 1.44186e-027   
     length 0.707595   
     axis -9.20027e-016 90 90   XYZ
    dof rx rz
    limits (-90.0 90.0)
           (-45.0 45.0)
  end
  begin
     id 22 
     name lfingers
     direction 1 -4.48985e-011 2.88371e-027   
     length 0.570481   
     axis -1.84005e-015 90 90   XYZ
    dof rx
    limits (0.0 90.0)
  end
  begin
     id 23
     name lthumb
     direction 0.707107 -6.34929e-011 0.707107   
     length 0.819101   
     axis -90 45 2.85299e-015   XYZ
    dof rx rz
    limits (-45.0 45.0)
           (-45.0 45.0)
  end
  begin
     id 24 
     name rclavicle
     direction -0.958661 0.284411 -0.00895327   
     length 3.11921  
     axis 0 0 0   XYZ 
    dof ry rz
    limits (-10.0 20.0)
           (-20.0 0.0)
  end
  begin
     id 25 
     name rhumerus
     direction -1 -4.48963e-011 -4.22193e-027  
     length 4.75876   
     axis 180 30 90   XYZ
    dof rx ry rz
    limits (-90.0 60.0)
           (-90.0 90.0)
           (-90.0 90.0)
  end
  begin
     id 26 
     name rradius
     direction -1 -4.48968e-011 -1.07616e-027   
     length 2.93293   
     axis 180 30 90   XYZ
    dof rx
    limits (-10.0 170.0)
  end
  begin
     id 27 
     name rwrist
     direction -1 -4.48965e-011 7.20928e-028   
     length 1.46647   
     axis -5.52449e-016 -90 -90   XYZ
    dof ry
    limits (-180.0 0.0)
  end
  begin
     id 28
     name rhand
     direction -1 -4.48971e-011 1.44186e-027   
     length 0.831748   
     axis -9.20027e-016 -90 -90   XYZ
    dof rx rz
    limits (-90.0 90.0)
           (-45.0 45.0)
  end
  begin
     id 29
     name rfingers
     direction -1 -4.48961e-011 2.88371e-027   
     length 0.670577   
     axis -1.84005e-015 -90 -90   XYZ
    dof rx
    limits (0.0 90.0)
  end
  begin
     id 30
     name rthumb
     direction -0.707107 -6.34929e-011 0.707107   
     length 0.962818   
     axis -90 -45 -2.85299e-015   XYZ
    dof rx rz
    limits (-45.0 45.0)
           (-45.0 45.0)
  end
:hierarchy
  begin
    root lhipjoint rhipjoint lowerback
    lhipjoint lfemur
    lfemur ltibia
    ltibia lfoot
    lfoot ltoes
    rhipjoint rfemur
    rfemur rtibia
    rtibia rfoot
    rfoot rtoes
    lowerback upperback
    upperback thorax
    thorax lowerneck lclavicle rclavicle
    lowerneck upperneck
    upperneck head
    lclavicle lhumerus
    lhumerus lradius
    lradius lwrist
    lwrist lhand lthumb
    lhand lfingers
    rclavicle rhumerus
    rhumerus rradius
    rradius rwrist
    rwrist rhand rthumb
    rhand rfingers
  end

#!OML:ASF E:\id_vita\Project 1\Capture day 1\Session 1\Female.ASF
:FULLY-SPECIFIED
:DEGREES
1046
root 5.55544 27.4939 1.43798 690.035 96.7476 671.533
lowerback -11.6259 -0.596505 -6.44998
upperback -2.9615 0.153037 -1.05473
thorax 3.40191 0.100232 2.557
lowerneck 4.37535 -0.626831 -2.50431
upperneck -10.9096 -0.344184 5.3485
head -4.39048 -0.266156 2.28276
rclavicle 5.36097e-015 1.9133e-014
rhumerus -38.6745 18.2859 -93.5782
rradius 67.7422
rwrist -10.625
rhand -29.91 11.1459
rfingers 7.12502
rthumb -3.2305 -18.8094
lclavicle 5.36097e-015 1.9133e-014
lhumerus -35.5877 2.01343 81.411
lradius 71.463
lwrist -9.61244
lhand -11.8134 18.0584
lfingers 7.12502
lthumb 14.2368 47.5504
rfemur -26.2274 15.1223 16.2381
rtibia 19.29
rfoot -0.886651 -24.4462
rtoes 2.40248
lfemur -40.3851 -7.7689 -16.9671
ltibia 46.1143
lfoot -4.68781 -10.9874
ltoes -12.8592
1047
root 5.54847 27.4951 1.43815 688.996 96.5558 670.575
lowerback -11.461 -0.505999 -6.43924
upperback -2.94441 0.255842 -1.04523
thorax 3.31973 0.152049 2.57486
lowerneck 4.67757 -0.622754 -2.45032
upperneck -11.6446 -0.286874 5.49034
head -4.22732 -0.272863 2.09581
rclavicle 2.04375e-015 1.09332e-015
rhumerus -38.7863 18.0068 -93.7154
rradius 66.893
rwrist -10.7999
rhand -29.4534 11.1193
rfingers 7.12502
rthumb -2.78963 -18.8422
lclavicle 2.04375e-015 1.09332e-015
lhumerus -36.485 2.36398 81.551
lradius 70.5502
lwrist -9.29432
lhand -11.3826 18.7153
lfingers 7.12502
lthumb 14.6519 48.1776
rfemur -26.1331 14.7803 16.425
rtibia 19.2213
rfoot -0.949 -23.852
rtoes 2.06551
lfemur -40.4041 -7.51726 -16.9824
ltibia 46.3103
lfoot -4.64542 -11.1282
ltoes -12.706
1048
root 5.5469 27.4949 1.44137 689.646 96.5969 671.211
lowerback -11.5005 -0.536907 -6.46273
upperback -2.91161 0.220093 -1.01987
thorax 3.37879 0.131198 2.60976
lowerneck 5.17444 -0.639468 -2.36421
upperneck -12.2669 -0.279206 5.449
head -4.50142 -0.279857 2.07653
rclavicle -6.53505e-015 -1.64494e-014
rhumerus -38.8975 17.9132 -93.9659
rradius 65.8737
rwrist -10.3006
rhand -30.125 10.8215
rfingers 7.12502
rthumb -3.43819 -19.1305
lclavicle -6.53505e-015 -1.64494e-014
lhumerus -37.2698 2.73955 81.6626
lradius 69.5534
lwrist -8.83681
lhand -11.2945 18.6982
lfingers 7.12502
lthumb 14.7368 48.1544
rfemur -26.1103 14.9725 16.3921
rtibia 19.1287
rfoot -0.934557 -24.0428
rtoes 2.87091
lfemur -40.5857 -7.44602 -16.9558
ltibia 46.5107
lfoot -4.51548 -11.3467
ltoes -12.646
1049
root 5.54088 27.497 1.44472 689.93 96.441 671.391
lowerback -11.3817 -0.481601 -6.28487
upperback -3.02432 0.26282 -1.05597
thorax 3.19296 0.162577 2.47744
lowerneck 5.41312 -0.663828 -2.23344
upperneck -12.5621 -0.285849 5.44234
head -4.63226 -0.292838 2.05718
rclavicle -8.14085e-015 7.7526e-015
rhumerus -39.1204 17.4862 -94.2664
rradius 64.9201
rwrist -10.1685
rhand -30.1375 10.8558
rfingers 7.12502
rthumb -3.45025 -19.096
lclavicle -8.14085e-015 7.7526e-015
lhumerus -38.1486 3.21893 81.5681
lradius 68.4317
lwrist -8.60244
lhand -11.1874 17.4324
lfingers 7.12502
lthumb 14.8399 46.881
rfemur -26.2302 14.9369 16.5033
rtibia 19.0616
rfoot -1.06056 -23.9005
rtoes 3.741
lfemur -40.8492 -7.24975 -16.8334
ltibia 46.7089
lfoot -4.36783 -11.5015
ltoes -12.3232
1050
root 5.53163 27.4986 1.44607 689.318 96.2417 670.756
lowerback -11.6436 -0.439842 -6.33986
upperback -2.74266 0.342622 -0.951567
thorax 3.62391 0.178327 2.6308
lowerneck 5.07319 -0.706018 -2.25158
upperneck -12.7753 -0.33349 5.35428
head -4.63805 -0.303116 2.03517
rclavicle 3.32343e-015 5.56597e-015
rhumerus -38.6455 17.3546 -94.0963
rradius 63.8111
rwrist -10.389
rhand -29.4605 11.6758
rfingers 7.12502
rthumb -2.7964 -18.2856
lclavicle 3.32343e-015 5.56597e-015
lhumerus -38.39 4.03785 81.6631
lradius 67.1659
lwrist -8.59988
lhand -10.7586 16.7477
lfingers 7.12502
lthumb 15.253 46.1653
rfemur -26.2857 14.627 16.6825
rtibia 19.015
rfoot -1.12291 -23.4228
rtoes 3.52533
lfemur -41.0048 -7.071 -16.7693
ltibia 46.9135
lfoot -4.20815 -11.5483
ltoes -12.0252
1051
root 5.52428 27.4974 1.44411 689.995 96.4083 671.517
lowerback -10.9901 -0.468364 -6.21613
upperback -2.98463 0.239006 -1.07641
thorax 3.0217 0.152867 2.41255
lowerneck 4.989 -0.74547 -2.1339
upperneck -12.5507 -0.381798 5.39614
head -4.5536 -0.333046 2.02871
rclavicle 3.73342e-015 2.51463e-014
rhumerus -39.1684 17.3259 -94.6411
rradius 63.1474
rwrist -10.2607
rhand -30.0658 10.8625
rfingers 7.12502
rthumb -3.38096 -19.0905
lclavicle 3.73342e-015 2.51463e-014
lhumerus -39.5233 4.44717 81.4098
lradius 66.1694
lwrist -8.55308
lhand -10.11 16.8939
lfingers 7.12502
lthumb 15.8777 46.2629
rfemur -26.1764 14.5324 16.6525
rtibia 18.9599
rfoot -1.08705 -23.4635
rtoes 3.52131
lfemur -41.1069 -7.19516 -16.8132
ltibia 47.1232
lfoot -3.99262 -11.6972
ltoes -11.8915
